<?xml version="1.0" encoding="utf-8"?>
<!-- Generator: Adobe Illustrator 26.1.0, SVG Export Plug-In . SVG Version: 6.00 Build 0)  -->
<svg version="1.1" id="Layer_1" xmlns="http://www.w3.org/2000/svg" xmlns:xlink="http://www.w3.org/1999/xlink" x="0px" y="0px"
	 viewBox="0 0 60.5 60.5" style="enable-background:new 0 0 60.5 60.5;" xml:space="preserve">
<style type="text/css">
	.st0{fill-rule:evenodd;clip-rule:evenodd;fill:#2F2F2F;}
</style>
<g>
	<path class="st0" d="M30.2,33.4c-1,0-2-0.4-2.8-1L14.2,21.2l0,18.6c0,0.4,0.4,0.8,0.8,0.8h30.4l0,0c0.4,0,0.8-0.4,0.8-0.7V21.2
		L33.1,32.4C32.3,33.1,31.2,33.4,30.2,33.4z"/>
	<path class="st0" d="M31,29.9l11.9-10.1H17.6l11.8,10.1C29.9,30.3,30.5,30.3,31,29.9z"/>
	<path class="st0" d="M30.2,0.2c-16.6,0-30,13.4-30,30s13.4,30,30,30s30-13.4,30-30S46.8,0.2,30.2,0.2z M49.4,39.8c0,2.2-1.8,4-4,4
		H15c-2.2,0-4-1.8-4-4V20.6c0-2.2,1.8-4,4-4h30.4c2.2,0,4,1.8,4,4V39.8z"/>
</g>
</svg>
