<?xml version="1.0" encoding="utf-8"?>
<!-- Svg Vector Icons : http://www.onlinewebfonts.com/icon -->
<!DOCTYPE svg PUBLIC "-//W3C//DTD SVG 1.1//EN" "http://www.w3.org/Graphics/SVG/1.1/DTD/svg11.dtd">
<svg version="1.1" xmlns="http://www.w3.org/2000/svg" xmlns:xlink="http://www.w3.org/1999/xlink" x="0px" y="0px" viewBox="0 0 256 256" enable-background="new 0 0 256 256" xml:space="preserve">
<metadata> Svg Vector Icons : http://www.onlinewebfonts.com/icon </metadata>
<g><g><path fill="#000000" d="M128,10c32.8,0,60.6,11.5,83.6,34.4c23,22.9,34.4,50.8,34.4,83.6c0,32.4-11.5,60.2-34.4,83.3C188.6,234.4,160.8,246,128,246c-32.5,0-60.2-11.6-83.3-34.7C21.6,188.2,10,160.5,10,128c0-32.8,11.6-60.6,34.7-83.6C67.8,21.5,95.6,10,128,10L128,10 M99,176.7V100H75.4v76.7H99L99,176.7 M87.2,90.1c8.5,0,12.8-3.9,12.8-11.8s-4.3-11.8-12.8-11.8c-3.6,0-6.6,1.2-9.1,3.4s-3.7,5.1-3.7,8.4C74.4,86.2,78.7,90.1,87.2,90.1L87.2,90.1 M186.5,176.7v-45.2c0-10.8-2.5-19.1-7.6-24.8S167.2,98,159,98c-10.8,0-18.7,4.1-23.6,12.3h-0.5l-1.5-10.3h-20.7c0.3,4.6,0.5,12.8,0.5,24.6v52.1h24.1v-44.2c0-3,0.3-4.9,1-5.9c2-6.2,6.1-9.3,12.3-9.3c7.9,0,11.8,5.6,11.8,16.7v42.8H186.5L186.5,176.7"/></g></g>
</svg>