<?xml version="1.0" encoding="utf-8"?>
<!-- Generator: Adobe Illustrator 26.1.0, SVG Export Plug-In . SVG Version: 6.00 Build 0)  -->
<svg version="1.1" id="Layer_1" xmlns="http://www.w3.org/2000/svg" xmlns:xlink="http://www.w3.org/1999/xlink" x="0px" y="0px"
	 viewBox="0 0 60.5 60.5" style="enable-background:new 0 0 60.5 60.5;" xml:space="preserve">
<style type="text/css">
	.st0{fill:#2F2F2F;}
</style>
<path class="st0" d="M30.2,0.8C13.7,0.8,0.4,14.2,0.4,30.7c0,14,9.6,25.7,22.7,28.9c-0.1-0.4-0.2-0.9-0.2-1.4v-5.1
	c-1.2,0-3.2,0-3.7,0c-2.1,0-3.9-0.9-4.7-2.5c-1-1.8-1.1-4.6-3.5-6.3c-0.7-0.6-0.2-1.2,0.7-1.1c1.6,0.4,2.8,1.5,4,3
	c1.2,1.6,1.7,1.9,4,1.9c1.1,0,2.7-0.1,4.2-0.3c0.8-2.1,2.2-4,4-4.9c-10.1-1.1-14.8-6-14.8-12.8c0-2.9,1.2-5.7,3.3-8
	c-0.7-2.4-1.6-7.1,0.2-8.9c4.5,0,7.2,2.9,7.8,3.7c2.2-0.8,4.7-1.2,7.3-1.2c2.6,0,5,0.4,7.3,1.2c0.6-0.8,3.4-3.7,7.8-3.7
	c1.8,1.8,0.9,6.6,0.2,9c2.1,2.4,3.3,5.1,3.3,8c0,6.7-4.7,11.6-14.7,12.7c2.7,1.4,4.7,5.4,4.7,8.5v6.8c0,0.2-0.1,0.4-0.1,0.7
	c11.6-4.1,20-15.2,20-28.2C60.1,14.2,46.7,0.8,30.2,0.8z"/>
</svg>
